<svg width="31" height="26" viewBox="0 0 31 26" fill="none" xmlns="http://www.w3.org/2000/svg">
<path d="M0.0075187 7.8825C0.0877159 7.14714 0.00757745 6.33825 0.167972 5.60288C0.488761 3.98508 1.21052 2.51433 2.65406 1.41128C3.45604 0.822991 4.17783 0.234697 5.38079 0.308234C5.86197 0.381771 6.42327 0.16117 6.90446 0.0876331C9.23018 -0.28005 11.155 0.528844 12.6787 2.14665C13.2401 2.73495 13.8015 3.24969 14.3628 3.83799C15.245 4.8675 15.3252 4.94102 16.2876 3.91151C16.9292 3.24968 17.5707 2.66141 18.3727 2.14665C21.0192 0.381771 23.9063 0.675918 26.633 1.77897C27.6756 2.22019 28.4776 3.17616 29.039 4.20567C30.8033 7.73543 30.2419 10.1622 27.2746 13.1772C26.5528 13.9125 25.9914 14.795 25.2696 15.5303C23.7459 17.1481 22.2222 18.766 20.6183 20.3102C18.4529 22.3693 15.245 22.7369 13.0797 24.7224C12.4381 25.2372 11.4758 25.0901 10.6738 25.3107C10.4332 25.3842 10.1926 25.2372 10.0322 25.0165C6.90448 21.8545 3.77677 18.7659 1.69164 14.8685C0.488682 12.5153 -0.0726785 10.4563 0.0075187 7.8825ZM19.6558 4.86752C20.8588 4.86752 21.8211 4.20566 22.9439 4.05859C23.1845 3.98505 23.3449 3.83797 23.3449 3.54382C23.2647 3.24968 23.0241 3.1026 22.7835 3.17614C21.6608 3.61736 20.2172 3.61739 19.6558 4.86752ZM12.5985 21.0456C13.3203 20.7514 13.5609 20.2367 13.8015 19.869C13.9619 19.6484 13.9618 19.4278 13.7212 19.2072C13.4806 19.0601 13.2401 19.1336 13.0797 19.3542C12.6787 19.7954 12.1975 20.2367 12.5985 21.0456ZM9.95199 4.49983C9.79159 4.27922 9.63118 3.98504 9.23019 3.91151C8.9896 3.83797 8.74905 3.91154 8.66885 4.13215C8.50846 4.64691 8.98958 4.6469 9.31037 4.72044C9.55096 4.86751 9.7114 4.79398 9.95199 4.49983Z" fill="#FFFEC4"/>
</svg>
