<svg width="22" height="28" viewBox="0 0 22 28" fill="none" xmlns="http://www.w3.org/2000/svg">
<path d="M9.8 8.91L12.455 2.745C12.455 2.745 12.545 2.55 12.725 2.16C12.935 1.77 13.34 1.38 13.94 0.99C14.57 0.599999 15.515 0.419999 16.775 0.449998C18.035 0.449998 18.86 0.674998 19.25 1.125C19.67 1.545 19.82 2.055 19.7 2.655C19.61 3.225 19.415 3.765 19.115 4.275C18.935 4.575 18.605 5.085 18.125 5.805C17.675 6.525 17.165 7.335 16.595 8.235C16.025 9.135 15.47 10.005 14.93 10.845C14.39 11.655 13.94 12.33 13.58 12.87C13.25 13.41 13.085 13.68 13.085 13.68L20.96 24.345C20.96 24.345 21.035 24.465 21.185 24.705C21.335 24.915 21.41 25.2 21.41 25.56C21.44 25.92 21.275 26.28 20.915 26.64C20.585 27 19.925 27.315 18.935 27.585C17.945 27.855 17.09 27.87 16.37 27.63C15.68 27.39 15.11 27.06 14.66 26.64C14.21 26.19 13.88 25.785 13.67 25.425C13.46 25.065 13.355 24.885 13.355 24.885L10.655 19.035L8.36 25.425C8.36 25.425 8.285 25.56 8.135 25.83C7.985 26.07 7.625 26.325 7.055 26.595C6.515 26.865 5.645 27 4.445 27C3.245 27 2.405 26.79 1.925 26.37C1.475 25.92 1.25 25.425 1.25 24.885C1.25 24.315 1.355 23.835 1.565 23.445C1.685 23.205 1.955 22.74 2.375 22.05C2.795 21.33 3.275 20.52 3.815 19.62C4.355 18.72 4.88 17.85 5.39 17.01C5.9 16.14 6.32 15.435 6.65 14.895C7.01 14.325 7.19 14.04 7.19 14.04L0.53 4.68C0.53 4.68 0.44 4.545 0.26 4.275C0.11 4.005 0.0350001 3.675 0.0350001 3.285C0.0350001 2.895 0.245 2.535 0.665 2.205C1.085 1.875 1.88 1.65 3.05 1.53C4.04 1.44 4.85 1.515 5.48 1.755C6.11 1.965 6.59 2.25 6.92 2.61C7.28 2.94 7.52 3.24 7.64 3.51C7.79 3.78 7.865 3.915 7.865 3.915L9.8 8.91Z" fill="black"/>
</svg>
