<svg width="540" height="100" viewBox="0 0 540 100" fill="none" xmlns="http://www.w3.org/2000/svg">
<rect x="0.5" y="0.5" width="99" height="99" rx="9.5" fill="#CBFFA9" stroke="black"/>
<path d="M39.66 64.1C39.5 61.74 39.32 59.28 39.12 56.72C38.92 54.12 38.72 51.64 38.52 49.28C38.36 46.92 38.22 44.92 38.1 43.28C37.98 41.6 37.88 40.52 37.8 40.04C37.68 39.12 37.72 38.5 37.92 38.18C38.16 37.82 38.28 37.64 38.28 37.64C38.28 37.64 38.14 37.5 37.86 37.22C37.58 36.9 37.44 36.56 37.44 36.2C37.44 35.56 37.82 35.04 38.58 34.64C39.38 34.24 40.28 33.94 41.28 33.74C42.28 33.54 43.16 33.4 43.92 33.32C44.72 33.24 45.12 33.2 45.12 33.2C45.12 33.2 45.52 33.18 46.32 33.14C47.12 33.1 48.14 33.14 49.38 33.26C50.66 33.38 52.02 33.7 53.46 34.22C54.94 34.7 56.34 35.48 57.66 36.56C59.02 37.64 60.16 39.12 61.08 41C62 42.84 62.56 45.2 62.76 48.08C63 51.48 62.84 54.34 62.28 56.66C61.76 58.98 60.96 60.88 59.88 62.36C58.84 63.8 57.64 64.92 56.28 65.72C54.92 66.52 53.5 67.08 52.02 67.4C50.58 67.68 49.2 67.86 47.88 67.94C46.6 67.98 45.48 68 44.52 68C43.12 68 42.06 67.8 41.34 67.4C40.66 67 40.2 66.56 39.96 66.08C39.76 65.56 39.66 65.1 39.66 64.7C39.66 64.3 39.66 64.1 39.66 64.1ZM46.08 38.6L48.72 62.9C48.72 62.9 48.9 62.88 49.26 62.84C49.62 62.8 50.06 62.62 50.58 62.3C51.14 61.98 51.66 61.4 52.14 60.56C52.66 59.72 53.06 58.54 53.34 57.02C53.62 55.46 53.68 53.44 53.52 50.96C53.36 47.84 53.02 45.42 52.5 43.7C52.02 41.94 51.42 40.68 50.7 39.92C50.02 39.16 49.28 38.72 48.48 38.6C47.68 38.48 46.88 38.48 46.08 38.6Z" fill="#070707" fill-opacity="0.8"/>
<rect x="220.5" y="0.5" width="99" height="99" rx="9.5" fill="#FFD6A5" stroke="black"/>
<path d="M257.32 37.58C257.32 37.58 257.28 37.42 257.2 37.1C257.12 36.74 257.14 36.32 257.26 35.84C257.42 35.36 257.78 34.92 258.34 34.52C258.94 34.12 259.88 33.86 261.16 33.74C262.44 33.62 263.88 33.52 265.48 33.44C267.12 33.36 268.68 33.28 270.16 33.2C271.68 33.12 272.92 33.06 273.88 33.02C274.84 32.98 275.32 32.96 275.32 32.96C275.32 32.96 275.58 32.98 276.1 33.02C276.66 33.02 277.3 33.1 278.02 33.26C278.78 33.38 279.46 33.64 280.06 34.04C280.66 34.4 281.02 34.94 281.14 35.66C281.26 36.38 281.12 36.94 280.72 37.34C280.32 37.74 279.84 38.04 279.28 38.24C278.72 38.4 278.22 38.5 277.78 38.54C277.34 38.58 277.12 38.6 277.12 38.6L267.52 39.14C267.52 39.14 267.58 39.4 267.7 39.92C267.82 40.44 267.94 41.04 268.06 41.72C268.22 42.36 268.32 42.92 268.36 43.4C268.4 43.84 268.44 44.42 268.48 45.14C268.52 45.82 268.56 46.44 268.6 47C268.64 47.52 268.66 47.78 268.66 47.78H273.1C273.1 47.78 273.32 47.8 273.76 47.84C274.2 47.84 274.7 47.92 275.26 48.08C275.86 48.2 276.38 48.4 276.82 48.68C277.26 48.96 277.5 49.38 277.54 49.94C277.58 50.66 277.3 51.2 276.7 51.56C276.14 51.92 275.54 52.16 274.9 52.28C274.3 52.36 273.92 52.42 273.76 52.46C273.64 52.46 273.32 52.48 272.8 52.52C272.28 52.52 271.7 52.52 271.06 52.52C270.46 52.52 269.92 52.52 269.44 52.52C268.96 52.52 268.72 52.52 268.72 52.52C268.72 52.52 268.72 52.82 268.72 53.42C268.76 53.98 268.8 54.64 268.84 55.4C268.88 56.16 268.88 56.82 268.84 57.38C268.84 57.9 268.82 58.54 268.78 59.3C268.74 60.02 268.7 60.66 268.66 61.22C268.62 61.74 268.6 62 268.6 62L276.7 61.7C276.7 61.7 276.96 61.7 277.48 61.7C278 61.66 278.62 61.7 279.34 61.82C280.06 61.94 280.7 62.18 281.26 62.54C281.82 62.9 282.12 63.44 282.16 64.16C282.24 64.88 282.04 65.46 281.56 65.9C281.08 66.34 280.52 66.66 279.88 66.86C279.24 67.06 278.66 67.2 278.14 67.28C277.66 67.32 277.42 67.34 277.42 67.34L264.46 68C264.46 68 264.14 68 263.5 68C262.9 68.04 262.2 68 261.4 67.88C260.6 67.72 259.9 67.42 259.3 66.98C258.7 66.5 258.42 65.78 258.46 64.82C258.54 63.54 258.62 61.54 258.7 58.82C258.78 56.06 258.74 52.84 258.58 49.16C258.42 45.48 258 41.62 257.32 37.58Z" fill="#070707" fill-opacity="0.8"/>
<rect x="330.5" y="0.5" width="99" height="99" rx="9.5" fill="#FF9B9B" stroke="black"/>
<path d="M373.44 35.6C373.4 35.6 373.46 35.38 373.62 34.94C373.82 34.46 374.26 34 374.94 33.56C375.62 33.12 376.74 32.88 378.3 32.84C379.7 32.8 380.76 32.98 381.48 33.38C382.2 33.74 382.68 34.1 382.92 34.46C383.2 34.82 383.34 35 383.34 35C383.34 35 383.56 35.52 384 36.56C384.44 37.6 385.04 38.98 385.8 40.7C386.56 42.38 387.4 44.26 388.32 46.34C389.24 48.42 390.16 50.54 391.08 52.7C392.04 54.82 392.92 56.82 393.72 58.7C394.56 60.54 395.26 62.1 395.82 63.38C396.38 64.62 396.74 65.4 396.9 65.72C397.26 66.48 397.46 67.02 397.5 67.34C397.54 67.66 397.52 67.88 397.44 68C397.4 68.08 397.38 68.14 397.38 68.18C397.1 68.74 396.54 69.22 395.7 69.62C394.9 70.06 393.92 70.3 392.76 70.34C391.16 70.38 390 70.2 389.28 69.8C388.56 69.44 388.08 69.06 387.84 68.66C387.64 68.3 387.56 68.14 387.6 68.18C387.6 68.18 387.38 67.72 386.94 66.8C386.54 65.88 386.06 64.78 385.5 63.5C384.94 62.18 384.42 60.98 383.94 59.9C383.94 59.9 383.66 59.9 383.1 59.9C382.58 59.9 381.96 59.9 381.24 59.9C380.52 59.9 379.88 59.9 379.32 59.9C378.8 59.9 378.54 59.9 378.54 59.9C378.38 60.46 378.22 61.16 378.06 62C377.9 62.8 377.76 63.52 377.64 64.16C377.52 64.8 377.46 65.12 377.46 65.12C377.46 65.12 377.36 65.36 377.16 65.84C377 66.32 376.54 66.8 375.78 67.28C375.02 67.76 373.76 68 372 68C370.68 68 369.68 67.86 369 67.58C368.36 67.26 367.92 66.9 367.68 66.5C367.48 66.1 367.38 65.76 367.38 65.48C367.38 65.16 367.38 65 367.38 65C367.46 64.6 367.62 63.78 367.86 62.54C368.14 61.26 368.46 59.74 368.82 57.98C369.22 56.18 369.62 54.28 370.02 52.28C370.46 50.28 370.88 48.3 371.28 46.34C371.68 44.38 372.04 42.6 372.36 41C372.68 39.36 372.94 38.06 373.14 37.1C373.34 36.1 373.44 35.6 373.44 35.6ZM379.74 45.08C379.7 45.24 379.66 45.56 379.62 46.04L379.38 47.72C379.3 48.64 379.2 49.62 379.08 50.66C378.96 51.7 378.84 52.68 378.72 53.6C378.64 54.08 378.58 54.38 378.54 54.5H379.32C379.8 54.5 380.32 54.48 380.88 54.44C381.44 54.4 381.94 54.38 382.38 54.38C382.22 54.06 382.08 53.66 381.96 53.18C381.88 52.66 381.78 52.18 381.66 51.74C381.42 50.82 381.14 49.86 380.82 48.86C380.54 47.86 380.28 46.92 380.04 46.04C379.92 45.56 379.82 45.24 379.74 45.08Z" fill="#070707" fill-opacity="0.8"/>
<rect x="440.5" y="0.5" width="99" height="99" rx="9.5" fill="#FFD6A5" stroke="black"/>
<path d="M483.5 68C482.02 68 480.9 67.8 480.14 67.4C479.42 67 478.94 66.54 478.7 66.02C478.46 65.5 478.34 65.04 478.34 64.64C478.34 64.24 478.34 64.04 478.34 64.04L477.62 38C477.62 38 477.6 37.8 477.56 37.4C477.52 37 477.6 36.54 477.8 36.02C478 35.46 478.42 34.98 479.06 34.58C479.7 34.14 480.7 33.92 482.06 33.92C483.86 33.88 485.22 34.14 486.14 34.7C487.06 35.22 487.66 35.76 487.94 36.32C488.26 36.84 488.42 37.1 488.42 37.1L495.32 49.64C495.32 49.64 495.48 49.28 495.8 48.56C496.16 47.8 496.58 46.86 497.06 45.74C497.58 44.62 498.1 43.48 498.62 42.32C499.14 41.16 499.6 40.16 500 39.32C500.4 38.44 500.66 37.88 500.78 37.64C500.98 37.24 501.34 36.7 501.86 36.02C502.38 35.3 503.12 34.64 504.08 34.04C505.08 33.44 506.38 33.12 507.98 33.08C509.18 33.04 510.1 33.18 510.74 33.5C511.38 33.78 511.82 34.12 512.06 34.52C512.34 34.92 512.5 35.28 512.54 35.6C512.58 35.92 512.6 36.08 512.6 36.08C512.6 36.08 512.6 36.6 512.6 37.64C512.6 38.64 512.6 39.98 512.6 41.66C512.64 43.34 512.66 45.18 512.66 47.18C512.66 49.18 512.66 51.2 512.66 53.24C512.66 55.24 512.66 57.08 512.66 58.76C512.7 60.44 512.72 61.8 512.72 62.84C512.72 63.88 512.72 64.42 512.72 64.46C512.72 64.5 512.7 64.7 512.66 65.06C512.66 65.42 512.52 65.84 512.24 66.32C511.96 66.76 511.46 67.16 510.74 67.52C510.06 67.84 509.04 68 507.68 68C506.32 68 505.28 67.86 504.56 67.58C503.88 67.26 503.4 66.92 503.12 66.56C502.84 66.16 502.68 65.82 502.64 65.54C502.6 65.26 502.58 65.12 502.58 65.12C502.58 65.12 502.58 64.78 502.58 64.1C502.58 63.38 502.58 62.5 502.58 61.46C502.62 60.38 502.64 59.32 502.64 58.28C502.68 57.2 502.7 56.3 502.7 55.58C502.7 54.86 502.7 54.5 502.7 54.5L503.18 45.92L500.06 52.58C500.06 52.58 499.94 52.8 499.7 53.24C499.5 53.68 499.1 54.12 498.5 54.56C497.9 55 497 55.24 495.8 55.28C494.64 55.32 493.72 55.16 493.04 54.8C492.4 54.4 491.94 54.02 491.66 53.66C491.42 53.26 491.3 53.06 491.3 53.06L487.4 45.92C487.4 45.92 487.42 46.4 487.46 47.36C487.54 48.28 487.62 49.5 487.7 51.02C487.78 52.5 487.86 54.08 487.94 55.76C488.02 57.4 488.08 58.96 488.12 60.44C488.2 61.88 488.26 63.04 488.3 63.92C488.34 65 488.12 65.84 487.64 66.44C487.16 67 486.6 67.4 485.96 67.64C485.32 67.84 484.74 67.96 484.22 68C483.74 68 483.5 68 483.5 68Z" fill="#070707" fill-opacity="0.8"/>
<rect x="110.5" y="0.5" width="99" height="99" rx="9.5" fill="#FFD6A5" stroke="black"/>
<path d="M150.38 64.76L147.62 38.6C147.62 38.6 147.56 38.48 147.44 38.24C147.36 38 147.34 37.68 147.38 37.28C147.42 36.88 147.64 36.46 148.04 36.02C148.48 35.58 149.22 35.18 150.26 34.82C151.66 34.3 153.3 33.88 155.18 33.56C157.1 33.2 159.12 33.1 161.24 33.26C163.4 33.42 165.52 34.06 167.6 35.18C168.84 35.82 169.76 36.74 170.36 37.94C170.96 39.14 171.32 40.42 171.44 41.78C171.56 43.14 171.56 44.44 171.44 45.68C171.36 46.92 171.22 47.94 171.02 48.74C170.86 49.54 170.78 49.94 170.78 49.94C170.78 49.94 170.64 50.24 170.36 50.84C170.08 51.44 169.54 52.12 168.74 52.88C167.98 53.6 166.86 54.18 165.38 54.62L173.9 63.8C173.9 63.8 174.04 63.96 174.32 64.28C174.6 64.6 174.82 65 174.98 65.48C175.18 65.92 175.14 66.38 174.86 66.86C174.62 67.3 173.96 67.68 172.88 68C171.76 68.32 170.76 68.4 169.88 68.24C169.04 68.08 168.34 67.82 167.78 67.46C167.26 67.1 166.86 66.76 166.58 66.44C166.3 66.12 166.16 65.96 166.16 65.96L158.24 56.18L160.22 64.64C160.22 64.64 160.26 64.82 160.34 65.18C160.42 65.5 160.38 65.88 160.22 66.32C160.06 66.76 159.66 67.16 159.02 67.52C158.38 67.84 157.36 68 155.96 68C154.56 68 153.46 67.84 152.66 67.52C151.9 67.2 151.36 66.82 151.04 66.38C150.72 65.94 150.52 65.56 150.44 65.24C150.4 64.92 150.38 64.76 150.38 64.76ZM156.08 38.54L157.52 50.6C157.52 50.6 157.74 50.62 158.18 50.66C158.66 50.7 159.22 50.66 159.86 50.54C160.54 50.42 161.18 50.14 161.78 49.7C162.42 49.22 162.94 48.5 163.34 47.54C163.74 46.54 163.88 45.18 163.76 43.46C163.64 41.82 163.32 40.62 162.8 39.86C162.28 39.06 161.64 38.56 160.88 38.36C160.12 38.12 159.32 38.06 158.48 38.18C157.64 38.26 156.84 38.38 156.08 38.54Z" fill="#070707" fill-opacity="0.8"/>
</svg>
