<svg width="34" height="63" viewBox="0 0 34 63" fill="none" xmlns="http://www.w3.org/2000/svg">
<path d="M13.0921 55.9372C13.0921 50.9417 11.6753 46.2908 9.83351 41.812C8.55843 38.5391 6.85833 35.4385 4.44984 33.0268C3.59978 32.1655 3.03306 31.3042 2.74971 29.9261C2.60803 29.0648 2.04138 28.5481 1.47468 28.0313C-0.367112 26.4809 -0.508806 25.6197 1.19131 24.2417C3.5998 22.1745 6.00831 20.1074 8.55848 18.3848C11.1086 16.8345 12.8087 14.2506 14.0838 11.3222C15.2172 8.73832 16.3507 5.98208 17.059 3.05368C17.6257 0.469787 19.8925 -0.736028 21.876 0.469787C23.0094 1.15882 23.0094 2.70912 23.1511 4.08719C23.4344 7.70464 23.8594 11.1498 24.7095 14.595C25.9846 19.935 29.3849 23.208 32.6434 26.4809C34.3435 28.2035 34.3435 28.3758 33.2101 30.4429C32.785 31.132 32.36 32.1654 31.6517 32.6822C25.2762 37.5055 22.301 45.2571 19.6092 53.3533C19.0425 55.0759 19.1841 56.7987 19.0425 58.6935C18.7591 61.4497 17.7674 63 16.4923 63C15.0755 63 13.2338 60.5882 13.0921 58.5211C12.9505 57.4875 13.0921 56.6262 13.0921 55.9372ZM5.72496 27.8591C5.86663 28.2036 5.8666 28.7204 5.8666 28.7204C10.2586 31.821 13.0921 36.4719 14.9339 42.1565C15.6423 44.3958 16.634 44.3958 17.7674 42.1565C20.0342 38.0222 22.301 34.0603 25.4179 30.7874C27.118 29.0648 26.9763 27.859 24.9929 26.3087C22.726 24.4138 21.3093 21.8299 20.4592 18.9014C20.0342 17.5234 19.4675 16.4899 18.6174 15.284C14.9339 20.2796 12.1004 26.6532 5.72496 27.8591Z" fill="#FACF71"/>
<path d="M5.7251 27.8591C11.9588 26.6533 14.7923 20.2796 18.6176 15.2841C19.4676 16.4899 20.0343 17.5234 20.4594 18.9015C21.4511 21.8299 22.7262 24.4138 24.993 26.3087C26.9765 27.859 27.1181 29.0648 25.418 30.7874C22.3011 34.0603 20.0344 38.0222 17.7676 42.1565C16.6342 44.2236 15.6424 44.2236 14.934 42.1565C13.0923 36.4719 10.2587 31.821 5.86674 28.7204C5.86674 28.5481 5.86677 28.2036 5.7251 27.8591Z" fill="#FAC95D"/>
</svg>
