<svg width="27" height="26" viewBox="0 0 27 26" fill="none" xmlns="http://www.w3.org/2000/svg">
<path d="M0.00664926 7.8825C0.0775727 7.14714 0.00670121 6.33825 0.148548 5.60288C0.432242 3.98508 1.07053 2.51433 2.34716 1.41128C3.05639 0.822991 3.69472 0.234697 4.75857 0.308234C5.18411 0.381771 5.6805 0.16117 6.10604 0.087633C8.16282 -0.28005 9.86504 0.528844 11.2126 2.14665C11.709 2.73494 12.2055 3.24969 12.702 3.83799C13.4821 4.8675 13.5531 4.94102 14.4041 3.9115C14.9715 3.24967 15.5389 2.66141 16.2481 2.14665C18.5886 0.381771 21.1419 0.675918 23.5533 1.77897C24.4753 2.22019 25.1845 3.17616 25.681 4.20567C27.2413 7.73543 26.7448 10.1621 24.1206 13.1772C23.4823 13.9125 22.9858 14.795 22.3475 15.5303C21 17.1481 19.6525 18.766 18.234 20.3102C16.3191 22.3692 13.4821 22.7369 11.5672 24.7224C10.9998 25.2372 10.1487 25.0901 9.4395 25.3107C9.22673 25.3842 9.01392 25.2372 8.87207 25.0165C6.10606 21.8545 3.34003 18.7659 1.49602 14.8685C0.432172 12.5153 -0.0642741 10.4563 0.00664926 7.8825ZM17.3829 4.86752C18.4467 4.86752 19.2978 4.20566 20.2907 4.05859C20.5035 3.98505 20.6453 3.83797 20.6453 3.54382C20.5744 3.24967 20.3617 3.1026 20.1489 3.17614C19.156 3.61736 17.8793 3.61739 17.3829 4.86752ZM11.1417 21.0456C11.78 20.7514 11.9928 20.2367 12.2055 19.869C12.3474 19.6484 12.3473 19.4278 12.1345 19.2072C11.9218 19.0601 11.709 19.1336 11.5672 19.3542C11.2126 19.7954 10.7871 20.2367 11.1417 21.0456ZM8.80117 4.49983C8.65932 4.27922 8.51746 3.98504 8.16284 3.9115C7.95007 3.83797 7.73733 3.91154 7.66641 4.13215C7.52456 4.64691 7.95005 4.6469 8.23375 4.72044C8.44652 4.86751 8.5884 4.79398 8.80117 4.49983Z" fill="#FAC95D"/>
<path d="M17.3829 4.94097C17.8794 3.61731 19.0851 3.61732 20.149 3.24964C20.3617 3.1761 20.5745 3.32317 20.6454 3.61732C20.7163 3.91147 20.5745 4.05855 20.2908 4.13208C19.2978 4.27916 18.4468 4.94097 17.3829 4.94097Z" fill="#FACF71"/>
<path d="M11.1416 21.0456C10.787 20.2367 11.2125 19.7954 11.5671 19.3542C11.709 19.1336 11.9217 19.0601 12.1344 19.2071C12.3472 19.3542 12.3473 19.6483 12.2054 19.8689C11.9217 20.3102 11.709 20.7514 11.1416 21.0456Z" fill="#FACF71"/>
<path d="M8.80124 4.49983C8.65939 4.86752 8.44659 4.86749 8.23382 4.79395C7.95012 4.64688 7.52464 4.64689 7.66648 4.20567C7.73741 3.98506 7.95014 3.91153 8.16291 3.98507C8.44661 3.98507 8.65939 4.20569 8.80124 4.49983Z" fill="#FACF71"/>
<path d="M17.3832 4.86749C17.3832 4.86749 17.3833 4.94101 17.312 4.94101C17.3833 4.94101 17.3832 4.94103 17.3832 4.86749Z" fill="#FAC95D"/>
</svg>
